<?xml version="1.0" encoding="utf-8"?>
<!-- Generator: Adobe Illustrator 24.0.3, SVG Export Plug-In . SVG Version: 6.00 Build 0)  -->
<svg version="1.1" id="Capa_1" xmlns="http://www.w3.org/2000/svg" xmlns:xlink="http://www.w3.org/1999/xlink" x="0px" y="0px"
	 viewBox="0 0 599.95 206.49" style="enable-background:new 0 0 599.95 206.49;" xml:space="preserve">
<style type="text/css">
	.st0{fill:#36BC49;}
	.st1{fill:#1D2326;}
</style>
<g>
	<path class="st0" d="M459.54,115.91c0.05-10.06,0.93-19.88,4.51-29.24c1.57-4.09,4.29-7.36,8.34-9.21
		c7.48-3.41,15.66,1.24,16.75,9.44c0.19,1.4,0.32,2.81,0.53,4.62c9.89-1.05,19.76-2.1,29.84-3.17c-1.04-8.49-4.23-15.81-9.45-22.48
		c3.63-4.11,8.09-6.77,12.94-8.79c15.03-6.24,34.53-2.27,44.71,9.12c6.87,7.69,10.86,16.88,13.11,26.82
		c4.62,20.41,4.52,40.75-1.71,60.84c-3.25,10.45-8.56,19.67-17.83,26.09c-5.3,3.67-11.21,5.83-17.58,6.54
		c-12.25,1.37-23.57-0.63-32.77-9.67c-0.64-0.63-1.23-1.31-2-2.14c8.87-8.91,12.88-19.73,13.55-32.05c0.33,1.34,0.64,2.67,0.99,4
		c0.38,1.44,0.59,2.97,1.22,4.3c1.26,2.69,2.38,5.58,4.23,7.83c5.67,6.92,15.57,6.07,20.22-1.53c3.1-5.08,4.22-10.81,5.05-16.57
		c2.05-14.27,1.85-28.54-0.49-42.75c-0.94-5.69-2.4-11.23-6.31-15.76c-5.08-5.88-12.93-5.88-18,0.03c-3.84,4.47-5.42,10-6.12,15.57
		c-1.28,10.13-1.92,20.33-2.74,29.59c-3.98-12.26-12.2-21.99-26.47-24.44C480.4,100.57,467.98,103.17,459.54,115.91z"/>
	<path class="st1" d="M352.87,171.5c-7.93,0-16.08,0.06-24.23-0.09c-0.84-0.02-2.04-1.19-2.4-2.09c-0.81-2.06-1.21-4.28-1.9-6.95
		c-1.5,1.63-2.79,3.21-4.28,4.59c-7.55,7.01-16.36,8.72-25.88,5.18c-7.69-2.86-11.2-9.43-11.75-17.14
		c-0.59-8.43-0.47-16.95-0.12-25.41c0.25-6.04,3.39-10.95,8.39-14.37c3.21-2.19,6.7-4.02,10.17-5.79
		c7.1-3.64,14.26-7.17,21.43-10.66c1.46-0.71,2.15-1.55,2.02-3.24c-0.28-3.56-0.17-7.16-0.65-10.69c-0.6-4.33-3.92-6.4-9.07-6.12
		c-4.51,0.24-7.18,2.72-7.44,7.1c-0.17,2.91-0.22,5.83-0.13,8.74c0.05,1.78-0.38,2.55-2.33,2.52c-6.25-0.11-12.49-0.02-18.74-0.14
		c-0.72-0.01-2.05-0.86-2.04-1.31c0.03-5.4-0.28-10.88,0.58-16.17c1.09-6.71,5.2-11.84,11.59-14.31c13.35-5.15,26.93-5.99,40.2,0.15
		c8.36,3.86,12.93,10.56,12.89,20.15c-0.09,22.49-0.05,44.98,0,67.47c0.01,2.9,0.08,5.87,0.66,8.7
		C350.52,164.88,351.78,168.03,352.87,171.5z M324.17,117.23c-4.74,3.16-9.13,5.81-13.17,8.91c-1.65,1.27-3.16,3.36-3.69,5.35
		c-1.58,5.92-1.43,12.04-0.44,18.05c0.75,4.58,3.3,6.21,7.67,4.86c2.53-0.78,4.78-2.46,7.16-3.72c2.22-1.18,2.56-3.09,2.53-5.44
		c-0.12-8.23-0.05-16.46-0.05-24.69C324.17,119.67,324.17,118.79,324.17,117.23z"/>
	<path class="st1" d="M226.52,171.47c-6.68,0-12.83,0-18.98,0c-0.58,0-1.17,0-1.75,0c-6.48,0-7.64-1.11-8.04-7.69
		c-0.02-0.33-0.05-0.66-0.13-1.6c-0.94,0.94-1.62,1.55-2.22,2.23c-5.34,6.03-11.78,9.52-20.08,9.38c-10-0.17-17.38-5.79-19.5-15.59
		c-1.99-9.21-1.22-18.58-0.83-27.87c0.23-5.39,2.6-10.21,6.83-13.7c2.61-2.15,5.57-3.95,8.58-5.5c8.2-4.24,16.49-8.3,24.8-12.33
		c1.59-0.77,2.2-1.7,2.07-3.44c-0.26-3.32-0.23-6.66-0.57-9.97c-0.44-4.33-3.57-6.73-8.4-6.72c-5.06,0.01-7.78,2.16-8.21,6.75
		c-0.29,3.14-0.38,6.31-0.4,9.47c-0.01,1.48-0.44,2.09-1.99,2.08c-6.33-0.05-12.67,0.02-19-0.08c-0.65-0.01-1.85-0.82-1.85-1.25
		c0-5.15-0.25-10.36,0.43-15.44c1-7.53,5.54-12.85,12.61-15.44c12.75-4.68,25.74-5.32,38.4,0.14c8.91,3.84,13.84,10.8,13.82,20.9
		c-0.05,23.42-0.04,46.83,0.07,70.25C222.2,161.3,222.85,166.52,226.52,171.47z M196.87,118.09c-0.23-0.16-0.46-0.33-0.68-0.49
		c-4.6,3.22-9.27,6.35-13.76,9.72c-1.04,0.78-1.84,2.25-2.17,3.54c-1.63,6.55-1.73,13.19-0.25,19.76c0.8,3.55,3.34,5.11,6.75,4.03
		c2.7-0.86,5.19-2.42,7.68-3.84c1.98-1.12,2.61-2.92,2.48-5.25c-0.21-3.82-0.06-7.66-0.06-11.5
		C196.87,128.73,196.87,123.41,196.87,118.09z"/>
	<path class="st0" d="M446.96,175.3c-3.47,2.07-6.68,4.51-10.28,6.02c-15.19,6.37-30.7,7.24-46.07,0.89
		c-14.07-5.82-20.88-17.15-22.37-31.97c-0.26-2.56-0.44-5.15-0.42-7.72c0-0.56,0.93-1.56,1.5-1.61c9.03-0.85,18.06-1.57,27.1-2.31
		c0.15-0.01,0.3,0.11,0.52,0.19c0.22,3.35,0.17,6.78,0.72,10.1c1.4,8.41,7.74,14.03,15.37,13.95c8.45-0.08,14.93-5.7,16.09-14.4
		c0.41-3.07,0.41-6.37-0.25-9.37c-1.52-6.88-7.58-11.16-15.17-11.29c-2.39-0.04-4.78-0.01-7.37-0.01c0-5.11-0.01-9.91,0.01-14.72
		c0.01-2.08-0.62-4.64,0.36-6.08c0.72-1.04,3.6-0.63,5.53-0.79c4.92-0.41,9.33-1.74,12.09-6.29c4.13-6.83,3.53-19.96-8.14-22.78
		c-7.35-1.77-14.15,2.59-15.48,10.21c-0.44,2.51-0.54,5.09-0.81,7.88c-9.79-0.86-19.53-1.72-29.92-2.63
		c0.69-3.62,1.06-7.15,2.06-10.49c4.66-15.59,15.31-24.49,31.2-27.22c9.36-1.61,18.71-1.55,27.95,0.99
		c6.21,1.71,11.74,4.61,16.45,9.37c-1.07,1.26-2.14,2.49-3.19,3.74c-6.85,8.17-9.93,17.94-11.75,28.2
		c-2.3,13.03-2.71,26.17-1.46,39.31c1.09,11.42,3.55,22.51,10.39,32.11C443.15,170.75,444.91,172.74,446.96,175.3z"/>
	<path class="st1" d="M240.56,22.99c8.58,0,16.72,0,25.15,0c0.08,0.93,0.23,1.88,0.23,2.83c0.01,47.47-0.01,94.95,0.06,142.42
		c0,2.44-0.52,3.36-3.16,3.27c-6.32-0.2-12.66-0.06-18.99-0.07c-3.28,0-3.29-0.01-3.29-3.3c0-45.31,0-90.62,0-135.93
		C240.56,29.24,240.56,26.25,240.56,22.99z"/>
	<path class="st0" d="M493.54,144.59c-0.49,2.59-0.72,6.04-1.81,9.2c-2.35,6.76-7.85,10.38-14.41,10.05
		c-6.66-0.34-11.25-4.16-13.17-11.24c-1.55-5.72-1.53-11.56-0.16-17.28c1.76-7.35,7.44-12.03,13.82-11.86
		c7.79,0.21,13.1,4.67,14.76,12.64C493.08,138.6,493.16,141.2,493.54,144.59z"/>
	<path class="st1" d="M139.78,128.73c-6.91-0.1-13.83-0.01-20.75-0.09c-1.85-0.02-2.2,0.79-2.18,2.42c0.05,4.75,0.1,9.5-0.12,14.25
		c-0.34,7.38-6.4,11.46-13.17,9.02c-3.55-1.28-5.93-4.63-5.94-8.97c-0.06-18.16-0.04-36.33-0.01-54.49c0-1.4,0.21-2.82,0.52-4.19
		c1.1-4.82,4.69-7.35,9.96-7.12c4.94,0.21,8.16,2.94,8.7,7.85c0.4,3.63,0.36,7.3,0.46,10.96c0.06,2.04,0.01,4.09,0.01,6.17
		c8.35,0,16.32,0,24.5,0c0.06-1.01,0.18-1.91,0.17-2.8c-0.09-4.91-0.18-9.83-0.32-14.74c-0.27-9.52-4.74-16.48-13.14-20.79
		c-7.81-4.01-16.17-5.18-24.9-4.44c-7.72,0.66-14.87,2.77-20.92,7.69c-2.23,1.81-4.02,4.17-6.02,6.33
		c6.84,4.88,10.91,11.24,10.88,19.97c-0.02,5.81,0.1,11.69-0.69,17.42c-1.14,8.2-6.55,14.55-14.44,17.7
		c0.08,0.96,0.16,1.71,0.18,2.46c0.08,4.5-0.04,9.01,0.24,13.49c0.71,10.97,5.73,19.17,16.14,23.4c10.01,4.07,20.39,4.43,30.83,2.01
		c11.1-2.57,18.77-9.26,20.91-20.57c1.33-7.03,0.92-14.39,1.14-21.61C141.84,129.62,140.5,128.74,139.78,128.73z"/>
	<path class="st0" d="M75.44,74.97c-7.7-5.08-15.18-10.51-22.72-15.85c-2.84-2.01-5.1-4.43-5.78-8.09
		c-1.52-8.09,2.52-13.11,10.07-12.33c4.11,0.43,7.11,3.69,7.37,8.41c0.2,3.63,0.04,7.28,0.04,11.02c7.57,0,14.54,0,21.9,0
		c0-4.58,0-8.9,0-13.22c-0.01-11.15-5.93-18.71-16.68-21.59c-8.44-2.26-16.95-2.35-25.47-0.88c-9.89,1.71-17.37,6.56-19.99,16.94
		c-0.53,2.08-0.94,4.23-1.08,6.37c-0.51,7.84-0.25,15.65,4.99,22.07c2.38,2.92,5.47,5.33,8.51,7.6
		c7.47,5.56,15.12,10.89,22.67,16.34c2.38,1.71,4.21,3.95,4.52,6.9c0.29,2.79,0.34,5.66,0.06,8.44c-0.54,5.3-3.92,8.36-9.01,8.58
		c-5.14,0.22-8.76-2.43-9.57-7.78c-0.6-4-0.49-10.23-0.5-14.3L21.9,93.67c0,5.95-0.28,11.7,0.06,17.41
		c0.6,10.12,7.8,18.28,17.67,20.7c8.7,2.13,17.46,2.25,26.24,0.87c11.35-1.79,19.52-9.18,20.95-19.48
		c0.79-5.73,0.67-11.61,0.69-17.42C87.55,86.53,83,79.95,75.44,74.97z"/>
</g>
</svg>
